<svg xmlns="http://www.w3.org/2000/svg" version="1.1" xmlns:xlink="http://www.w3.org/1999/xlink" xmlns:svgjs="http://svgjs.dev/svgjs" width="1000" height="323" viewBox="0 0 1000 323"><g transform="matrix(1,0,0,1,-0.6060606060606233,-0.11226043455940271)"><svg viewBox="0 0 396 128" data-background-color="#ffffff" preserveAspectRatio="xMidYMid meet" height="323" width="1000" xmlns="http://www.w3.org/2000/svg" xmlns:xlink="http://www.w3.org/1999/xlink"><defs></defs><g id="tight-bounds" transform="matrix(1,0,0,1,0.2400000000000091,0.044487107193816655)"><svg viewBox="0 0 395.52 127.91102430803707" height="127.91102430803707" width="395.52"><g><svg viewBox="0 0 395.52 127.91102430803707" height="127.91102430803707" width="395.52"><g transform="matrix(1,0,0,1,0,93.53482159044619)"><svg viewBox="0 0 395.52 34.37620271759089" height="34.37620271759089" width="395.52"><g><svg viewBox="0 0 395.52 34.37620271759089" height="34.37620271759089" width="395.52"><g><svg viewBox="0 0 395.52 34.37620271759089" height="34.37620271759089" width="395.52"><g transform="matrix(1,0,0,1,0,0)"><svg width="395.52" viewBox="3.75 -34.900001525878906 408.4200134277344 35.5" height="34.37620271759089" data-palette-color="#010c80"><g class="undefined-text-0" data-fill-palette-color="primary" id="text-0"><path d="M3.75 0L3.75-34.3 28.25-34.3 28.25-29.55 9.3-29.55 9.3-19.4 26.4-19.4 26.4-14.65 9.3-14.65 9.3 0 3.75 0ZM34.3 0L34.3-34.3 39.85-34.3 39.85-4.8 57.7-4.8 57.7 0 34.3 0ZM63.4 0L63.4-34.3 68.95-34.3 68.95 0 63.4 0ZM92.24 0.6Q83.94 0.6 79.64-3.8 75.34-8.2 75.34-17.15L75.34-17.15Q75.34-26.05 79.79-30.48 84.24-34.9 92.74-34.9L92.74-34.9Q97.34-34.9 100.92-33.52 104.49-32.15 106.54-29.38 108.59-26.6 108.59-22.6L108.59-22.6 102.94-22.6Q102.94-26.3 100.17-28.25 97.39-30.2 92.84-30.2L92.84-30.2Q86.89-30.2 83.99-27.13 81.09-24.05 81.09-17.4L81.09-17.4 81.09-16.85Q81.09-10.15 83.89-7.13 86.69-4.1 92.39-4.1L92.39-4.1Q97.64-4.1 100.37-6.38 103.09-8.65 103.09-13.1L103.09-13.1 103.09-13.4 91.49-13.4 91.49-18.1 108.59-18.1 108.59 0 104.49 0 104.04-3.8Q99.94 0.6 92.24 0.6L92.24 0.6ZM115.74 0L115.74-34.3 121.29-34.3 121.29-19.95 138.79-19.95 138.79-34.3 144.34-34.3 144.34 0 138.79 0 138.79-15.15 121.29-15.15 121.29 0 115.74 0ZM160.59 0L160.59-29.5 149.19-29.5 149.19-34.3 177.54-34.3 177.54-29.5 166.14-29.5 166.14 0 160.59 0ZM197.59 0.6Q189.39 0.6 185.14-3.8 180.89-8.2 180.89-17.15L180.89-17.15Q180.89-26.05 185.14-30.48 189.39-34.9 197.59-34.9L197.59-34.9Q204.29-34.9 208.41-31.55 212.54-28.2 212.54-21.8L212.54-21.8 206.89-21.8Q206.89-25.85 204.39-28.03 201.89-30.2 197.64-30.2L197.64-30.2Q191.99-30.2 189.31-27.13 186.64-24.05 186.59-17.45L186.59-17.45 186.59-16.9Q186.59-10.25 189.29-7.18 191.99-4.1 197.64-4.1L197.64-4.1Q202.04-4.1 204.56-6.23 207.09-8.35 207.09-12.4L207.09-12.4 212.54-12.4Q212.54-5.95 208.44-2.68 204.34 0.6 197.59 0.6L197.59 0.6ZM218.48 0L218.48-34.3 245.08-34.3 245.08-29.55 224.03-29.55 224.03-19.9 242.88-19.9 242.88-15.15 224.03-15.15 224.03-4.75 245.38-4.75 245.38 0 218.48 0ZM251.83 0L251.83-34.3 256.93-34.3 273.53-12Q274.08-11.25 274.98-9.85L274.98-9.85 275.23-9.95 275.18-12.45 275.18-34.3 280.43-34.3 280.43 0 275.43 0 258.78-22.55Q258.38-23.05 257.93-23.75 257.48-24.45 257.28-24.75L257.28-24.75 257.03-24.7 257.08-22.15 257.08 0 251.83 0ZM296.68 0L296.68-29.5 285.28-29.5 285.28-34.3 313.63-34.3 313.63-29.5 302.23-29.5 302.23 0 296.68 0ZM318.48 0L318.48-34.3 336.43-34.3Q341.78-34.3 344.58-31.6 347.38-28.9 347.38-24.25L347.38-24.25Q347.38-20.7 345.78-18.2 344.18-15.7 341.18-14.55L341.18-14.55 348.78 0 342.73 0 335.68-13.75 324.03-13.75 324.03 0 318.48 0ZM324.03-18.45L336.08-18.45Q338.73-18.45 340.25-19.98 341.78-21.5 341.78-24.2L341.78-24.2Q341.78-26.75 340.33-28.15 338.88-29.55 336.08-29.55L336.08-29.55 324.03-29.55 324.03-18.45ZM351.12 0L364.47-34.3 371.47-34.3 384.77 0 378.87 0 375.72-8.35 359.92-8.35 356.82 0 351.12 0ZM361.67-13.1L373.92-13.1 370.17-23.15 367.92-29.55 367.67-29.55 367.22-28.25Q366.37-25.65 365.47-23.25L365.47-23.25 361.67-13.1ZM388.77 0L388.77-34.3 394.32-34.3 394.32-4.8 412.17-4.8 412.17 0 388.77 0Z" fill="#010c80" data-fill-palette-color="primary"></path></g></svg></g></svg></g></svg></g></svg></g><g transform="matrix(1,0,0,1,159.10798563753488,0)"><svg viewBox="0 0 77.3040287249302 77.3040287249302" height="77.3040287249302" width="77.3040287249302"><g><svg></svg></g><g id="icon-0"><svg viewBox="0 0 77.3040287249302 77.3040287249302" height="77.3040287249302" width="77.3040287249302"><g><path d="M0 38.652c0-21.347 17.305-38.652 38.652-38.652 21.347 0 38.652 17.305 38.652 38.652 0 21.347-17.305 38.652-38.652 38.652-21.347 0-38.652-17.305-38.652-38.652zM38.652 74.204c19.635 0 35.552-15.917 35.552-35.552 0-19.635-15.917-35.552-35.552-35.552-19.635 0-35.552 15.917-35.552 35.552 0 19.635 15.917 35.552 35.552 35.552z" data-fill-palette-color="accent" fill="#77d4fc" stroke="transparent"></path></g><g transform="matrix(1,0,0,1,21.683549998075232,22.15495511633366)"><svg viewBox="0 0 33.93692872877974 32.994118492262885" height="32.994118492262885" width="33.93692872877974"><g><svg xmlns="http://www.w3.org/2000/svg" xmlns:xlink="http://www.w3.org/1999/xlink" version="1.1" x="0" y="0" viewBox="0 0.8889999985694885 64 62.22200012207031" enable-background="new 0 0 64 64" xml:space="preserve" height="32.994118492262885" width="33.93692872877974" class="icon-x-0" data-fill-palette-color="accent" id="x-0"><g fill="#77d4fc" data-fill-palette-color="accent"><path d="M39.822 22.934L24.001 0.889h-7.112l7.289 23.645H11.2l-4.622-8.088H0L4.979 32 0 47.555h6.578l4.622-8.09h12.978l-7.289 23.646h7.112l15.821-22.047C53.865 39.82 64 32 64 32S53.865 24.18 39.822 22.934z" fill="#77d4fc" data-fill-palette-color="accent"></path></g></svg></g></svg></g></svg></g></svg></g><g></g></svg></g></svg><rect width="395.52" height="127.91102430803707" fill="none" stroke="none" visibility="hidden"></rect></g></svg></g></svg>